<?xml version="1.0" encoding="utf-8"?>
<!-- Generator: Adobe Illustrator 16.0.4, SVG Export Plug-In . SVG Version: 6.00 Build 0)  -->
<!DOCTYPE svg PUBLIC "-//W3C//DTD SVG 1.1//EN" "http://www.w3.org/Graphics/SVG/1.1/DTD/svg11.dtd">
<svg version="1.1" id="Layer_1" xmlns="http://www.w3.org/2000/svg" xmlns:xlink="http://www.w3.org/1999/xlink" x="0px" y="0px"
	 width="216px" height="180px" viewBox="0 0 216 180" enable-background="new 0 0 216 180" xml:space="preserve">
<g>
	<g>
		<g>
			<g>
				<path fill="none" stroke="#000000" stroke-miterlimit="10" d="M28.471,45.854"/>
				<line fill="none" stroke="#000000" stroke-miterlimit="10" x1="140.391" y1="150.4" x2="12.685" y2="124.886"/>
				<line fill="none" stroke="#000000" stroke-miterlimit="10" x1="28.471" y1="45.854" x2="156.181" y2="71.367"/>
				<path fill="none" stroke="#000000" stroke-miterlimit="10" d="M12.685,124.886c-8.095-1.615-11.122-20.62-6.762-42.443
					c4.36-21.824,14.456-38.206,22.548-36.588"/>
				
					<ellipse transform="matrix(0.9806 0.1959 -0.1959 0.9806 24.5946 -26.9002)" fill="none" stroke="#000000" stroke-miterlimit="10" cx="148.286" cy="110.883" rx="14.945" ry="40.299"/>
				<g>
					<g>
						<path fill="none" stroke="#000000" stroke-miterlimit="10" d="M12.685,124.886c1.812,0.362,3.725-0.178,5.651-1.479"/>
						<path fill="none" stroke="#000000" stroke-miterlimit="10" stroke-dasharray="11.3411,11.3411" d="M25.672,114.866
							c3.952-6.597,7.437-15.937,9.561-26.568c2.688-13.456,2.567-25.839,0.183-33.736"/>
						<path fill="none" stroke="#000000" stroke-miterlimit="10" d="M33.12,49.392c-1.278-1.941-2.836-3.175-4.649-3.537"/>
					</g>
				</g>
			</g>
			<g>
				<g>
					<g>
						
							<line fill="none" stroke="#000000" stroke-linecap="square" stroke-miterlimit="10" x1="20.578" y1="85.37" x2="32.887" y2="23.754"/>
						<g>
							<path d="M32.535,25.514l-3.962,1.443l-0.056-0.137l3.439-5.304c0.842-1.919,1.685-3.838,2.528-5.757
								c0.041,2.095,0.081,4.191,0.122,6.286l1.137,6.218l-0.084,0.109L32.535,25.514z"/>
						</g>
					</g>
				</g>
				<g>
					<g>
						<line fill="none" stroke="#000000" stroke-miterlimit="10" x1="20.578" y1="85.37" x2="72.421" y2="46.155"/>
						<g>
							<path d="M70.99,47.238l-3.921-1.552l0.049-0.139l6.093-1.683c1.904-0.876,3.808-1.751,5.712-2.627
								c-1.361,1.594-2.722,3.188-4.083,4.782l-3.278,5.405l-0.135,0.025L70.99,47.238z"/>
						</g>
					</g>
				</g>
				<g>
					<g>
						
							<line fill="none" stroke="#000000" stroke-linecap="square" stroke-miterlimit="10" x1="20.578" y1="85.37" x2="196.817" y2="120.578"/>
						<g>
							<path d="M195.057,120.227l-1.442-3.963l0.137-0.056l5.304,3.438c1.919,0.843,3.838,1.686,5.757,2.528
								c-2.096,0.04-4.19,0.081-6.286,0.122l-6.219,1.137l-0.108-0.084L195.057,120.227z"/>
						</g>
					</g>
				</g>
			</g>
			<text transform="matrix(1 0 0 1 32.7349 11.7578)" font-family="'Lato-Italic'" font-size="12">y</text>
			<text transform="matrix(1 0 0 1 80.7153 41.2393)" font-family="'Lato-Italic'" font-size="12">x</text>
			<text transform="matrix(1 0 0 1 206.3223 125.3877)" font-family="'Lato-Italic'" font-size="12">z</text>
		</g>
		<g>
			<g>
				<g>
					<line fill="none" stroke="#000000" stroke-miterlimit="10" x1="140.391" y1="150.4" x2="134.391" y2="150.4"/>
					
						<line fill="none" stroke="#000000" stroke-miterlimit="10" stroke-dasharray="11.2066,11.2066" x1="123.184" y1="150.4" x2="39.135" y2="150.4"/>
					<line fill="none" stroke="#000000" stroke-miterlimit="10" x1="33.531" y1="150.4" x2="27.531" y2="150.4"/>
				</g>
			</g>
			<path fill="none" stroke="#000000" stroke-miterlimit="10" d="M88.871,150.4c0-3.456,0.341-6.832,0.989-10.097"/>
			<text transform="matrix(1 0 0 1 74.2866 147.2168)" font-family="'Lato-Italic'" font-size="12">τ</text>
		</g>
	</g>
	<g>
		<g>
			<g>
				<polyline fill="none" stroke="#000000" stroke-width="2" stroke-linejoin="round" points="139.196,26.619 70.855,26.619 
					139.354,40.303 				"/>
				<g>
					<path d="M137.401,26.619l-2.191,3.603l0.123,0.082l5.875-2.333c2.047-0.45,4.094-0.9,6.141-1.351
						c-2.047-0.45-4.094-0.9-6.141-1.351l-5.875-2.333l-0.123,0.062L137.401,26.619z"/>
				</g>
				<g>
					<path d="M137.594,39.952l-1.442-3.962l0.137-0.056l5.304,3.439c1.919,0.842,3.838,1.685,5.757,2.528
						c-2.096,0.041-4.19,0.081-6.286,0.122l-6.219,1.137l-0.108-0.084L137.594,39.952z"/>
				</g>
			</g>
		</g>
		<text transform="matrix(1 0 0 1 148.8887 30.5889)" font-family="'Lato-Bold'" font-size="12">B</text>
		<text transform="matrix(1 0 0 1 149.6191 46.7471)" font-family="'Lato-Bold'" font-size="12">E</text>
		<text transform="matrix(1 0 0 1 126.5391 35.4199)" font-family="'Lato-Italic'" font-size="12">τ</text>
		<path fill="none" stroke="#000000" stroke-miterlimit="10" d="M110.664,26.619c0,2.67-0.263,5.278-0.764,7.801"/>
	</g>
	<g>
		<g>
			<g>
				<line fill="none" stroke="#000000" stroke-miterlimit="10" x1="177.49" y1="167.014" x2="15.314" y2="167.014"/>
				<g>
					<path d="M17.109,167.014l2.191,3.604l-0.123,0.081l-5.875-2.333c-2.047-0.451-4.094-0.9-6.141-1.352
						c2.047-0.45,4.094-0.9,6.141-1.352l5.875-2.333l0.123,0.062L17.109,167.014z"/>
				</g>
			</g>
		</g>
		<text transform="matrix(1 0 0 1 181.5312 171.0332)" font-family="'Lato-Regular'" font-size="12">Beam</text>
	</g>
</g>
</svg>
